<?xml version="1.0" standalone="no"?>
<!DOCTYPE svg PUBLIC "-//W3C//DTD SVG 20010904//EN"
        "http://www.w3.org/TR/2001/REC-SVG-20010904/DTD/svg10.dtd">
<svg version="1.0" xmlns="http://www.w3.org/2000/svg"
     width="1536.000000pt" height="763.000000pt" viewBox="0 0 1536.000000 763.000000"
     preserveAspectRatio="xMidYMid meet">
    <metadata>
        Created by potrace 1.16, written by Peter Selinger 2001-2019
    </metadata>
    <g transform="translate(0.000000,763.000000) scale(0.100000,-0.100000)"
       fill="#000000" stroke="none">
        <path d="M1125 7621 c-16 -4 -63 -23 -104 -41 -41 -18 -99 -41 -129 -51 -31
-11 -79 -37 -108 -60 -29 -22 -69 -45 -89 -50 -20 -6 -60 -31 -90 -57 -29 -26
-64 -55 -78 -64 -15 -11 -32 -38 -42 -70 -10 -29 -31 -70 -48 -92 -37 -48 -64
-117 -72 -187 -10 -79 -20 -104 -64 -157 -50 -59 -76 -118 -92 -207 -10 -55
-19 -76 -41 -97 -38 -36 -121 -211 -149 -313 -18 -65 -21 -97 -16 -170 13
-214 114 -379 314 -511 102 -67 125 -95 209 -257 80 -154 204 -340 344 -517
141 -179 247 -354 413 -685 80 -160 179 -346 220 -415 281 -471 680 -891 1262
-1328 496 -371 732 -500 1625 -884 389 -167 531 -234 626 -293 77 -48 172
-141 158 -155 -46 -46 -618 -196 -1009 -264 -220 -39 -284 -54 -445 -101 -300
-90 -368 -97 -525 -51 -129 37 -253 56 -364 56 -114 0 -174 -15 -251 -64 -110
-71 -105 -70 -269 -51 -196 23 -435 23 -520 0 -166 -43 -261 -129 -297 -271
-14 -50 -13 -58 1 -80 8 -13 21 -24 28 -24 7 0 48 23 90 50 42 28 103 60 134
72 69 24 255 37 277 19 7 -6 16 -31 18 -56 8 -67 38 -116 88 -142 37 -20 58
-23 154 -23 61 -1 138 -7 171 -15 79 -19 179 -19 245 1 33 10 69 13 94 10 113
-17 176 -17 299 -2 216 26 622 38 1541 43 l868 5 35 31 c19 16 43 47 54 68 27
53 45 61 110 45 64 -15 80 -23 183 -93 81 -55 111 -67 143 -61 52 10 -4 148
-95 236 -146 142 -375 186 -695 133 -141 -23 -171 -25 -163 -12 15 24 319 78
781 141 319 43 354 49 401 71 31 15 73 82 100 162 15 45 15 52 0 91 -21 54
-20 56 8 56 13 0 34 8 47 19 21 16 22 21 10 49 -23 54 -47 47 424 128 798 136
1213 241 1707 430 191 73 348 122 493 154 55 12 174 39 265 60 188 44 211 47
560 60 140 6 325 18 410 28 125 14 245 17 625 17 507 0 630 -7 1000 -55 121
-16 348 -45 505 -65 157 -20 413 -56 570 -80 400 -62 443 -66 500 -48 42 14
55 13 160 -7 92 -18 163 -24 348 -27 216 -5 237 -4 290 15 51 19 96 22 398 31
336 11 632 34 666 52 35 19 21 49 -34 74 -29 13 -354 114 -723 225 -1250 375
-1441 439 -1645 554 -198 112 -448 226 -677 311 -57 21 -103 41 -103 44 0 3
21 17 48 31 104 55 261 155 366 234 273 205 382 369 332 501 -35 89 -186 195
-334 232 -104 27 -417 22 -782 -11 -162 -14 -430 -35 -595 -46 -165 -11 -354
-25 -421 -32 -97 -9 -127 -9 -152 1 -31 13 -77 59 -206 205 -60 67 -308 275
-507 424 -105 78 -356 204 -497 248 -44 14 -95 39 -125 62 -108 82 -279 169
-503 255 -91 36 -135 59 -180 97 -32 27 -99 70 -147 96 -87 46 -99 57 -186
170 -118 154 -549 390 -1131 619 -499 197 -1206 412 -1735 529 -431 95 -782
140 -1520 196 -410 32 -398 29 -560 109 -77 39 -295 156 -485 262 -697 387
-884 469 -1175 514 -112 17 -494 29 -540 16z"/>
    </g>
</svg>
