<?xml version="1.0" standalone="no"?>
<!DOCTYPE svg PUBLIC "-//W3C//DTD SVG 20010904//EN"
        "http://www.w3.org/TR/2001/REC-SVG-20010904/DTD/svg10.dtd">
<svg version="1.0" xmlns="http://www.w3.org/2000/svg"
     width="1536.000000pt" height="1270.000000pt" viewBox="0 0 1536.000000 1270.000000"
     preserveAspectRatio="xMidYMid meet">
    <metadata>
        Created by potrace 1.16, written by Peter Selinger 2001-2019
    </metadata>
    <g transform="translate(0.000000,1270.000000) scale(0.100000,-0.100000)"
       fill="#000000" stroke="none">
        <path d="M12965 12683 c-84 -45 -181 -152 -309 -341 -133 -197 -221 -391 -287
-635 -92 -340 -167 -496 -389 -812 -70 -99 -147 -250 -166 -326 -9 -35 -60
-158 -114 -274 -116 -247 -151 -335 -255 -630 -96 -270 -115 -315 -165 -380
-52 -68 -163 -161 -275 -231 -117 -73 -162 -95 -265 -132 -277 -97 -554 -105
-1255 -36 -392 39 -1115 50 -2210 35 -950 -13 -1142 -20 -1351 -50 -76 -11
-213 -27 -304 -36 -91 -8 -223 -26 -295 -39 -71 -14 -217 -37 -323 -53 l-194
-28 -106 55 c-71 37 -128 75 -171 115 -54 51 -188 223 -403 516 -123 169 -538
607 -653 689 -33 24 -87 67 -120 95 -63 55 -242 181 -335 235 -139 82 -481
244 -640 303 -219 82 -277 98 -698 196 -186 43 -394 96 -462 116 -321 96 -503
193 -485 259 14 48 79 169 156 286 101 156 173 301 199 404 61 241 -26 536
-157 536 -61 0 -114 -42 -229 -178 -59 -70 -177 -206 -261 -302 -185 -213
-228 -268 -292 -385 -100 -179 -158 -357 -148 -452 12 -112 131 -334 237 -442
73 -75 229 -194 337 -259 83 -50 370 -176 488 -215 114 -37 477 -140 625 -177
201 -50 256 -68 415 -137 371 -160 666 -330 870 -504 174 -147 215 -191 321
-339 85 -119 132 -201 259 -450 85 -168 174 -339 199 -380 52 -87 95 -223 103
-327 9 -115 -24 -255 -108 -455 -63 -151 -83 -224 -120 -443 -33 -195 -34
-259 -6 -395 9 -41 25 -122 36 -180 33 -173 128 -432 258 -710 28 -58 100
-209 161 -336 62 -128 112 -237 112 -244 0 -18 86 -197 120 -250 16 -25 51
-103 78 -175 28 -71 74 -184 103 -250 33 -76 54 -138 57 -170 5 -71 -48 -325
-98 -465 -23 -63 -64 -200 -90 -303 -27 -103 -61 -216 -76 -250 -14 -34 -35
-89 -45 -122 -11 -33 -66 -157 -123 -275 -137 -286 -140 -295 -133 -434 3 -75
11 -132 26 -175 11 -35 26 -104 32 -154 6 -49 24 -137 40 -194 16 -57 36 -145
45 -196 8 -51 35 -155 59 -232 80 -257 127 -419 165 -565 21 -80 46 -167 58
-195 11 -27 46 -117 78 -199 111 -283 239 -450 386 -502 69 -24 265 -35 431
-24 169 11 247 28 330 72 61 33 91 65 150 163 70 118 56 112 339 130 269 17
371 35 448 83 85 52 151 185 154 307 1 64 -2 74 -33 119 -77 110 -212 218
-290 231 -20 3 -101 -3 -180 -14 -152 -21 -172 -19 -207 20 -74 81 -418 701
-478 861 -53 140 -44 345 20 474 117 237 383 612 698 984 131 155 170 206 343
450 157 222 182 261 258 395 37 66 108 184 156 263 49 78 95 158 104 177 47
113 332 125 709 30 212 -54 543 -124 781 -165 99 -17 211 -38 250 -46 41 -9
180 -19 335 -24 146 -6 353 -17 460 -25 358 -28 465 -49 542 -109 20 -14 58
-33 86 -41 59 -18 143 -89 173 -146 31 -62 54 -176 139 -686 113 -681 175
-989 315 -1573 76 -315 89 -398 110 -675 9 -115 23 -255 31 -310 27 -173 27
-192 0 -305 -14 -58 -26 -121 -26 -141 0 -68 29 -136 89 -211 32 -40 87 -118
123 -173 94 -143 115 -165 168 -176 70 -15 842 -24 923 -11 72 11 125 42 149
85 19 33 15 190 -6 261 -26 88 -102 160 -219 206 -147 58 -175 93 -221 276
-45 179 -60 312 -60 529 0 175 3 218 27 340 30 158 47 280 77 540 12 99 43
313 70 475 27 162 63 396 80 520 17 124 44 306 60 405 16 99 41 256 55 349 28
180 75 359 127 484 43 103 154 266 388 567 468 603 597 796 711 1061 110 257
135 435 159 1119 18 515 30 700 55 807 7 35 23 140 35 233 25 201 47 292 100
400 62 129 316 505 341 505 4 0 -3 -25 -17 -55 -45 -99 -65 -221 -71 -437 -7
-250 4 -330 36 -269 6 10 20 106 31 212 34 326 61 444 127 572 35 66 84 119
91 98 2 -6 -15 -57 -38 -113 -43 -104 -64 -218 -42 -218 17 0 35 32 87 151 52
121 82 157 113 140 22 -12 27 -36 37 -166 7 -96 25 -194 36 -200 16 -10 22 22
30 150 11 195 26 220 157 257 126 34 222 124 342 318 69 113 163 298 181 358
11 37 10 50 -5 98 -27 84 -122 217 -239 331 -146 142 -210 241 -302 467 -81
198 -233 328 -629 537 -87 46 -179 102 -203 124 -65 59 -65 79 -4 331 28 115
51 225 51 245 0 46 -33 79 -80 79 -31 0 -50 -16 -197 -165 -90 -90 -179 -176
-198 -191 -45 -34 -69 -26 -99 34 -37 74 -93 259 -110 364 -9 52 -30 135 -47
184 -61 175 -114 245 -209 279 -53 19 -77 18 -115 -2z m1294 -3405 c-7 -13
-56 -68 -109 -123 -74 -77 -112 -127 -164 -218 -97 -166 -111 -166 -45 3 35
92 105 186 196 266 105 93 146 117 122 72z m-9207 -7895 c30 -49 87 -141 128
-206 40 -65 94 -146 121 -179 57 -71 63 -108 24 -134 -34 -22 -79 -10 -110 30
-25 34 -104 221 -180 433 -64 176 -62 183 17 56z"/>
        <path d="M8020 10370 c0 -5 5 -10 10 -10 6 0 10 5 10 10 0 6 -4 10 -10 10 -5
0 -10 -4 -10 -10z"/>
        <path d="M8030 10330 c0 -5 7 -10 16 -10 8 0 12 5 9 10 -3 6 -10 10 -16 10 -5
0 -9 -4 -9 -10z"/>
    </g>
</svg>
