<?xml version="1.0" standalone="no"?>
<!DOCTYPE svg PUBLIC "-//W3C//DTD SVG 20010904//EN"
 "http://www.w3.org/TR/2001/REC-SVG-20010904/DTD/svg10.dtd">
<svg version="1.0" xmlns="http://www.w3.org/2000/svg"
 width="1536.000000pt" height="1322.000000pt" viewBox="0 0 1536.000000 1322.000000"
 preserveAspectRatio="xMidYMid meet">
<metadata>
Created by potrace 1.16, written by Peter Selinger 2001-2019
</metadata>
<g transform="translate(0.000000,1322.000000) scale(0.100000,-0.100000)"
fill="#000000" stroke="none">
<path d="M2773 13208 c-5 -7 -26 -42 -47 -78 -20 -36 -52 -86 -70 -112 -35
-49 -80 -161 -122 -308 -14 -47 -36 -102 -50 -123 -14 -21 -27 -53 -29 -72 -3
-18 -17 -69 -32 -112 -25 -72 -27 -90 -28 -236 l0 -157 -26 -23 c-15 -12 -30
-34 -33 -49 -5 -24 -30 -39 -177 -114 -156 -78 -286 -159 -412 -253 -52 -39
-149 -156 -220 -267 -25 -39 -52 -75 -59 -81 -7 -6 -83 -33 -168 -61 -85 -28
-229 -84 -320 -125 -204 -92 -209 -94 -458 -167 -209 -61 -373 -132 -445 -191
-41 -34 -77 -102 -77 -147 0 -18 7 -49 15 -69 20 -47 97 -157 150 -213 24 -25
60 -72 81 -105 21 -33 54 -81 74 -106 20 -26 41 -59 47 -75 6 -16 21 -55 34
-87 21 -56 21 -60 6 -87 -10 -15 -17 -34 -17 -42 0 -33 174 -147 300 -197 137
-54 196 -62 545 -68 l320 -6 85 -56 c107 -72 122 -98 171 -296 20 -82 46 -186
58 -229 15 -55 21 -109 21 -177 l0 -98 50 -42 c28 -23 66 -66 86 -96 29 -44
40 -53 65 -53 38 0 69 -16 69 -35 0 -8 15 -21 34 -29 18 -7 52 -28 76 -45 24
-17 51 -31 62 -31 10 0 18 -4 18 -10 0 -5 27 -39 59 -76 32 -36 78 -101 101
-145 29 -53 54 -85 75 -98 28 -16 37 -33 65 -117 53 -161 71 -204 85 -204 21
0 27 -17 13 -39 -10 -16 -8 -28 12 -73 14 -29 43 -70 65 -91 22 -21 58 -76 81
-120 31 -62 46 -83 64 -85 19 -3 22 -8 17 -37 -5 -29 -1 -37 28 -59 38 -29 91
-100 128 -171 55 -105 206 -431 213 -459 4 -16 13 -41 20 -55 8 -14 14 -37 14
-51 1 -25 28 -114 43 -137 5 -7 21 -13 36 -13 60 0 104 -78 136 -240 22 -113
54 -228 73 -265 8 -16 19 -46 23 -65 17 -77 36 -127 65 -178 17 -29 39 -78 49
-110 9 -31 23 -73 29 -92 7 -19 56 -93 108 -165 53 -71 101 -147 107 -169 13
-48 52 -105 91 -135 20 -14 30 -30 30 -48 0 -16 12 -37 34 -58 34 -31 56 -85
56 -135 0 -53 22 -101 65 -145 25 -25 45 -53 45 -63 0 -38 45 -104 85 -126 25
-14 47 -37 59 -62 10 -21 38 -60 61 -86 54 -61 97 -162 135 -322 38 -157 50
-269 50 -471 0 -88 5 -214 11 -280 10 -127 24 -897 24 -1370 0 -266 -1 -284
-23 -355 -44 -139 -156 -300 -255 -368 -167 -114 -228 -139 -373 -151 -70 -6
-104 -14 -146 -35 -97 -51 -247 -156 -275 -194 -15 -20 -39 -50 -54 -65 -15
-16 -51 -72 -80 -125 -59 -107 -66 -147 -32 -204 24 -42 79 -73 157 -88 33 -6
106 -23 161 -36 85 -21 108 -23 145 -15 25 6 113 15 195 21 83 6 209 20 280
31 72 11 193 24 270 29 116 7 155 13 228 38 49 17 95 36 103 43 7 6 23 43 34
83 34 116 39 125 114 180 87 65 238 221 289 298 42 64 159 304 189 388 61 174
116 406 129 553 4 54 11 102 15 108 3 6 10 137 15 292 5 155 14 336 19 402 14
151 64 483 91 595 11 47 26 148 34 225 8 77 19 163 25 190 6 28 22 133 35 235
14 101 39 239 55 305 16 66 34 171 40 233 7 63 17 133 24 155 l12 42 241 0
242 0 30 -29 c30 -28 32 -29 78 -18 41 9 52 8 72 -6 75 -53 74 -53 147 -50 62
3 75 7 112 36 23 19 45 45 49 60 6 25 6 25 22 5 9 -11 27 -26 40 -33 51 -27
298 19 459 86 47 20 126 44 174 54 101 22 226 85 259 131 20 29 21 29 127 29
78 0 137 7 218 25 61 14 161 29 221 34 147 12 180 33 192 126 l6 40 45 -1 c25
-1 66 -5 91 -9 57 -9 113 14 135 56 l15 29 49 -25 c27 -14 54 -25 59 -25 5 0
15 16 22 35 15 40 29 43 67 16 35 -24 148 -81 162 -81 6 0 16 11 22 25 8 19
19 25 43 25 19 0 39 8 49 19 14 16 27 19 69 15 41 -4 59 -1 85 15 17 11 32 27
32 34 0 8 9 22 20 32 11 10 20 25 20 33 0 14 16 14 77 -4 18 -5 25 -1 35 22
30 71 57 78 153 39 52 -22 61 -23 75 -10 9 8 31 15 48 15 29 0 35 5 60 58 l27
57 57 9 c53 8 59 6 100 -22 24 -16 67 -41 96 -56 37 -19 56 -36 63 -55 9 -27
20 -31 127 -61 64 -17 239 -64 387 -105 149 -40 286 -77 305 -80 56 -11 257
-111 361 -180 109 -73 165 -130 263 -268 37 -52 98 -131 136 -174 120 -138
233 -283 495 -637 89 -120 254 -292 625 -651 85 -83 213 -210 284 -282 70 -73
134 -133 141 -133 31 0 171 -159 239 -272 55 -90 187 -362 211 -433 9 -27 31
-113 47 -190 30 -137 31 -147 35 -477 l5 -337 -45 -83 c-76 -140 -107 -162
-277 -197 -192 -41 -286 -104 -360 -242 -35 -65 -130 -304 -130 -326 0 -7 14
-28 31 -48 l31 -35 172 0 c94 0 250 6 346 12 178 11 192 11 348 6 79 -2 94 1
144 25 30 15 68 27 84 27 44 0 52 9 83 101 46 133 89 231 120 269 15 19 33 44
39 56 21 40 53 181 63 284 7 66 27 161 54 255 52 181 53 188 109 545 73 465
102 690 93 715 -4 8 -13 15 -22 15 -17 0 -263 249 -338 343 -27 34 -60 73 -74
87 -13 14 -42 71 -64 126 -22 56 -72 164 -111 240 -164 318 -188 380 -243 614
l-44 185 34 52 c19 28 50 63 69 78 50 38 59 71 60 228 l1 138 30 24 c17 14 62
50 102 81 79 61 74 50 103 224 6 36 18 78 26 94 8 16 14 36 14 46 0 9 5 21 10
26 8 8 8 19 0 38 -12 32 -2 84 34 171 13 33 29 90 36 125 15 89 46 190 65 218
9 12 43 36 76 52 48 25 59 35 59 55 0 14 5 25 10 25 6 0 22 11 35 25 20 19 25
34 25 77 0 68 39 239 80 348 64 173 121 354 127 400 6 54 -29 293 -57 379 -10
31 -23 99 -30 151 -28 222 -126 654 -175 770 -14 34 -42 105 -61 158 -19 54
-48 121 -64 149 -17 29 -30 67 -30 84 0 17 -9 82 -20 144 -33 188 -105 330
-234 459 -42 43 -76 92 -110 157 -59 113 -119 198 -180 258 -25 25 -50 59 -56
76 -6 18 -24 44 -40 60 l-29 28 44 86 c31 63 56 98 89 124 81 67 133 207 151
407 6 68 4 78 -15 103 -12 15 -30 27 -40 27 -19 0 -30 26 -30 78 0 37 1 37 40
17 28 -14 60 -11 60 6 0 4 -16 21 -37 36 -89 68 -106 100 -80 156 13 27 13 41
3 92 -14 67 -34 85 -119 107 -42 11 -106 53 -96 63 2 2 32 -4 66 -13 49 -13
66 -14 87 -4 22 10 25 15 16 31 -5 11 -19 23 -31 26 -16 5 -19 12 -15 31 5 19
-1 34 -24 62 -16 20 -30 44 -30 53 0 25 -38 68 -81 89 -21 11 -39 25 -39 30 0
17 -71 63 -108 70 -22 4 -53 1 -76 -7 -47 -16 -61 -7 -51 36 9 41 30 61 66 61
45 0 37 27 -13 40 -25 7 -57 27 -81 52 -39 40 -41 40 -95 35 -37 -4 -52 -3
-45 4 13 13 78 28 119 29 37 0 64 24 38 34 -8 3 -34 6 -57 6 -23 1 -55 7 -72
14 -20 9 -38 10 -55 4 -29 -11 -36 -4 -90 93 -47 84 -153 187 -321 314 -133
100 -204 145 -230 145 -7 0 -20 -7 -28 -15 -15 -13 -26 -5 -106 66 -100 89
-202 162 -216 153 -14 -8 -10 -42 10 -82 10 -20 23 -59 30 -87 7 -27 30 -77
52 -111 21 -33 39 -63 39 -67 0 -30 -93 50 -120 102 -9 20 -21 51 -25 69 -8
37 -52 95 -66 86 -15 -9 -10 -46 11 -93 11 -24 18 -46 16 -48 -2 -2 -32 33
-67 79 -116 153 -258 326 -285 347 -27 21 -64 28 -64 12 0 -5 29 -38 65 -74
57 -57 81 -97 57 -97 -4 0 -39 23 -77 51 -123 90 -186 111 -193 63 -2 -17 2
-21 26 -21 18 0 56 -17 99 -46 76 -51 244 -218 225 -225 -17 -5 -213 94 -272
137 -27 20 -92 76 -145 125 -70 65 -99 86 -107 78 -8 -8 8 -30 58 -83 79 -84
60 -75 -101 49 -60 46 -126 92 -146 103 -34 17 -38 17 -43 2 -8 -21 20 -63 42
-63 35 0 219 -137 204 -152 -15 -15 -90 20 -184 88 -158 113 -238 141 -246 87
-4 -27 -1 -27 -45 -8 -20 8 -50 15 -67 15 -27 0 -31 -3 -28 -22 2 -18 12 -24
46 -30 50 -8 151 -60 182 -93 l22 -23 -40 9 c-22 5 -95 34 -162 65 -93 42
-125 53 -134 44 -14 -15 11 -33 106 -76 73 -33 72 -44 0 -44 -27 0 -96 29
-244 101 -215 104 -260 117 -266 74 -2 -11 16 -49 38 -84 23 -35 40 -65 38
-66 -2 -2 -28 3 -58 11 -77 20 -139 18 -177 -6 -31 -18 -33 -23 -33 -75 0 -53
-1 -55 -35 -69 -19 -8 -35 -21 -35 -28 0 -29 -16 -41 -39 -29 -17 10 -26 8
-48 -8 -16 -11 -55 -30 -88 -42 -33 -12 -73 -30 -90 -40 -23 -15 -41 -17 -83
-12 l-53 6 6 -39 c12 -71 35 -131 60 -154 14 -13 25 -27 25 -32 0 -4 -48 -8
-107 -8 -60 0 -114 -4 -121 -8 -12 -8 -7 -42 7 -42 3 0 16 -8 29 -18 l23 -18
-60 -47 c-44 -34 -61 -54 -61 -71 0 -22 4 -24 72 -28 60 -5 91 -1 176 23 113
32 136 35 130 17 -9 -25 -249 -98 -320 -98 -73 0 -178 -89 -178 -150 0 -10 -7
-23 -15 -30 -24 -20 -12 -34 31 -40 l39 -5 -60 -34 c-96 -55 -119 -81 -70 -81
14 0 65 20 113 44 182 91 174 71 -30 -70 -135 -95 -188 -142 -188 -167 0 -7
-25 -36 -57 -64 -48 -44 -55 -55 -43 -63 13 -9 13 -11 -1 -20 -39 -23 -62 -47
-55 -59 10 -16 51 -7 141 30 l70 29 -61 -58 c-37 -35 -74 -61 -92 -65 -56 -11
-142 -115 -142 -172 0 -53 23 -74 85 -77 l55 -3 -41 -57 c-52 -75 -55 -104
-10 -135 19 -13 41 -23 51 -23 9 0 44 35 78 78 33 42 82 97 108 122 50 48 50
39 -1 -25 -48 -62 -231 -317 -244 -342 -16 -31 -14 -83 5 -104 14 -16 14 -18
-3 -23 -17 -5 -226 -36 -245 -36 -5 0 0 13 11 29 30 42 27 68 -11 92 -39 23
-68 22 -183 -11 -64 -18 -107 -23 -212 -24 -73 0 -133 -4 -133 -8 0 -5 -15 -8
-34 -8 -18 0 -53 -7 -76 -15 -41 -14 -47 -14 -137 15 -62 20 -126 32 -186 36
-80 6 -96 10 -119 32 -19 17 -42 26 -75 29 -45 5 -50 3 -61 -21 -19 -43 -94
-50 -100 -8 -4 27 -27 40 -77 44 -32 2 -42 -3 -66 -32 -16 -19 -29 -38 -29
-42 0 -21 -18 -4 -26 25 -14 46 -48 54 -276 67 -106 6 -211 15 -233 20 -59 14
-76 12 -82 -10 -3 -11 -9 -20 -14 -20 -8 0 -14 6 -47 47 -11 15 -44 30 -101
45 l-84 22 -21 -27 c-35 -44 -47 -36 -58 38 -2 12 -14 21 -34 26 -17 3 -48 19
-69 35 -33 25 -47 29 -101 29 -34 0 -65 3 -67 5 -3 3 -12 22 -20 42 l-16 37
-49 -6 c-47 -5 -50 -4 -54 18 -3 21 -9 24 -55 27 -36 2 -67 -3 -102 -19 -50
-21 -51 -21 -83 -2 -18 10 -49 46 -69 79 l-37 59 -44 -3 c-38 -2 -54 3 -104
37 -32 22 -84 65 -115 95 -37 37 -62 54 -72 50 -19 -7 -62 15 -158 83 -42 29
-102 64 -132 78 -46 20 -66 38 -121 108 -72 92 -138 157 -161 157 -7 0 -26
-16 -41 -35 -31 -41 -48 -34 -35 12 11 37 2 47 -49 58 -50 10 -52 12 -120 99
-33 44 -75 86 -91 94 -33 17 -109 115 -109 143 0 16 -62 79 -79 79 -5 0 -14
-7 -21 -15 -17 -20 -48 -19 -53 3 -3 9 -8 38 -12 64 -7 56 -34 93 -81 113 -19
8 -34 20 -34 28 0 18 -35 50 -89 80 -23 14 -48 35 -55 48 -8 16 -26 26 -61 34
-27 6 -60 17 -72 23 -12 7 -30 12 -41 12 -10 0 -31 13 -45 29 -18 21 -48 36
-98 51 -40 12 -95 38 -123 57 l-51 35 -87 -6 -87 -6 -10 33 c-20 61 -32 203
-46 552 -17 391 -21 440 -42 473 -21 34 -73 62 -117 62 -35 0 -47 -9 -173
-132 -74 -73 -178 -181 -230 -240 -53 -60 -99 -108 -102 -108 -7 0 -47 97 -86
204 -21 58 -16 114 19 237 17 57 21 88 15 96 -12 14 -151 73 -172 73 -8 0 -19
-6 -24 -12z m8290 -978 c48 -30 87 -81 87 -112 0 -33 -29 -18 -95 46 -92 90
-87 127 8 66z m680 -48 c64 -43 76 -56 60 -65 -30 -16 -173 83 -173 119 0 18
15 11 113 -54z m-525 -41 c3 -8 -1 -12 -9 -9 -7 2 -15 10 -17 17 -3 8 1 12 9
9 7 -2 15 -10 17 -17z m72 -51 c9 -17 8 -20 -8 -20 -10 0 -23 5 -30 12 -7 7
-12 20 -12 30 0 16 3 17 20 8 11 -6 24 -19 30 -30z m-302 -1 c60 -20 62 -22
43 -35 -43 -31 -93 -44 -160 -44 -59 0 -72 3 -81 19 -15 30 -12 69 8 81 23 14
112 5 190 -21z m-180 -139 c18 -11 30 -25 26 -31 -7 -12 -77 -3 -108 13 -19
10 -19 11 -1 24 26 19 44 17 83 -6z m2123 -64 c83 -73 175 -173 167 -181 -11
-12 -140 89 -191 150 -108 128 -99 139 24 31z m-2137 -24 c3 -5 -9 -29 -27
-53 l-32 -44 -3 35 c-5 52 -18 58 -42 16 -12 -20 -26 -33 -31 -30 -13 8 -11
58 3 72 14 14 124 17 132 4z m-224 -43 c21 -75 2 -85 -73 -39 -52 33 -52 43
-4 64 54 24 65 20 77 -25z m2729 -137 c71 -51 152 -115 182 -141 l53 -48 -27
-18 c-38 -25 -49 -17 -194 123 -113 111 -180 189 -154 181 6 -2 69 -46 140
-97z m-2802 -86 c-8 -21 -52 -6 -84 29 -31 33 -42 72 -25 89 9 10 114 -103
109 -118z m-203 -22 c31 -5 43 -10 34 -15 -21 -14 -93 -10 -114 6 -18 14 -18
14 7 15 14 0 47 -3 73 -6z m96 -74 c0 -5 -11 -10 -23 -10 -13 0 -48 -8 -78
-19 -70 -24 -148 -37 -134 -23 32 33 235 78 235 52z m3210 -97 c43 -50 75
-101 67 -110 -9 -9 -150 135 -143 146 13 21 34 11 76 -36z m230 -264 c0 -24
-23 -21 -28 4 -2 10 3 17 12 17 10 0 16 -9 16 -21z m70 -17 c0 -5 -7 -17 -15
-28 -8 -10 -15 -37 -15 -58 l0 -39 -25 23 -24 23 30 43 c27 40 49 56 49 36z
m25 -82 c-5 -8 -11 -8 -17 -2 -6 6 -7 16 -3 22 5 8 11 8 17 2 6 -6 7 -16 3
-22z m200 -119 c7 -12 -31 -25 -45 -16 -6 4 -8 11 -5 16 8 12 42 12 50 0z
m-110 -51 c3 -5 2 -10 -4 -10 -5 0 -13 5 -16 10 -3 6 -2 10 4 10 5 0 13 -4 16
-10z m222 -45 c27 -23 27 -24 6 -25 -25 0 -73 20 -73 30 0 28 33 25 67 -5z
m-122 5 c3 -5 -1 -10 -9 -10 -8 0 -18 5 -21 10 -3 6 1 10 9 10 8 0 18 -4 21
-10z m160 -100 c3 -5 -3 -10 -14 -10 -11 0 -23 5 -26 10 -3 6 3 10 14 10 11 0
23 -4 26 -10z m-4490 -35 c-39 -24 -55 -30 -55 -20 0 6 72 44 85 44 6 0 -8
-11 -30 -24z m193 -107 c-28 -40 -241 -253 -274 -275 -14 -9 -27 -13 -30 -10
-13 13 12 51 74 112 60 58 64 65 42 65 -24 0 -23 2 17 40 43 41 70 52 59 25
-10 -27 18 -16 74 30 30 25 56 45 58 45 2 0 -7 -14 -20 -32z m-238 -118 c0 -5
-4 -10 -10 -10 -5 0 -10 5 -10 10 0 6 5 10 10 10 6 0 10 -4 10 -10z m4585 0
c3 -5 1 -10 -4 -10 -6 0 -11 5 -11 10 0 6 2 10 4 10 3 0 8 -4 11 -10z m-1
-113 c16 -28 40 -66 53 -83 26 -35 28 -49 10 -82 l-13 -22 -27 27 c-14 16 -33
46 -40 68 -18 52 -31 145 -20 145 4 0 21 -24 37 -53z m86 43 c0 -5 -4 -10 -9
-10 -6 0 -13 5 -16 10 -3 6 1 10 9 10 9 0 16 -4 16 -10z m17 -312 c-3 -8 -6
-5 -6 6 -1 11 2 17 5 13 3 -3 4 -12 1 -19z m73 -219 c0 -113 -52 -261 -114
-318 -22 -21 -26 -22 -32 -7 -11 28 2 77 44 172 23 51 48 120 57 155 9 35 19
68 22 72 11 18 23 -20 23 -74z"/>
</g>
</svg>
