<?xml version="1.0" standalone="no"?>
<!DOCTYPE svg PUBLIC "-//W3C//DTD SVG 20010904//EN"
        "http://www.w3.org/TR/2001/REC-SVG-20010904/DTD/svg10.dtd">
<svg version="1.0" xmlns="http://www.w3.org/2000/svg"
     width="1472.000000pt" height="1536.000000pt" viewBox="0 0 1472.000000 1536.000000"
     preserveAspectRatio="xMidYMid meet">
    <metadata>
        Created by potrace 1.16, written by Peter Selinger 2001-2019
    </metadata>
    <g transform="translate(0.000000,1536.000000) scale(0.100000,-0.100000)"
       fill="#000000" stroke="none">
        <path d="M2050 15354 c-71 -9 -195 -36 -269 -59 -107 -33 -136 -35 -474 -44
-257 -7 -307 -11 -336 -25 -18 -10 -89 -71 -156 -136 -68 -65 -140 -127 -162
-138 -21 -11 -87 -36 -148 -56 -197 -67 -301 -143 -385 -284 -91 -154 -120
-268 -120 -467 1 -98 9 -127 78 -280 54 -118 72 -189 78 -310 7 -128 19 -164
93 -278 88 -135 91 -137 183 -123 l47 7 3 -328 4 -328 26 -65 c15 -36 43 -101
62 -145 73 -164 66 -196 -69 -329 l-102 -101 -110 -220 c-113 -228 -183 -415
-220 -585 -27 -126 -24 -399 6 -535 29 -134 75 -283 117 -376 22 -49 41 -116
54 -190 11 -63 31 -150 46 -194 35 -111 40 -197 34 -665 -8 -684 4 -858 77
-1100 49 -163 85 -255 264 -683 252 -599 283 -696 344 -1072 58 -358 111 -635
205 -1080 184 -869 235 -1174 279 -1660 33 -362 59 -922 77 -1635 l6 -255 -41
-179 c-53 -230 -75 -304 -117 -393 -52 -108 -83 -136 -189 -168 -125 -38 -157
-57 -233 -133 -127 -129 -241 -291 -277 -391 -21 -61 -13 -81 32 -81 29 0 43
-7 69 -35 40 -44 66 -45 129 -3 47 31 48 31 94 18 65 -20 113 -17 211 14 116
36 253 56 390 56 290 0 490 43 490 104 0 8 21 40 46 72 64 83 83 125 149 329
89 280 101 378 66 553 -30 145 -39 257 -52 592 -20 520 -5 1371 41 2355 22
482 36 827 50 1275 15 456 31 564 92 615 30 25 37 27 103 23 77 -6 328 -75
412 -115 61 -28 70 -40 153 -197 l63 -119 -7 -626 c-7 -715 -18 -1004 -46
-1281 -11 -107 -27 -303 -35 -435 -29 -440 -89 -821 -190 -1210 -36 -137 -37
-146 -45 -405 -5 -146 -14 -301 -20 -345 -20 -143 -120 -718 -136 -780 -32
-125 -87 -184 -248 -266 -107 -55 -187 -121 -216 -179 -23 -45 -34 -102 -26
-135 5 -21 12 -25 41 -25 19 0 52 -9 72 -20 51 -26 170 -56 306 -76 124 -18
202 -12 327 26 85 26 96 25 187 -11 98 -39 171 -47 245 -25 67 19 185 96 248
161 l45 46 3 107 c2 59 -3 177 -11 262 -28 299 18 728 108 995 63 187 72 272
49 449 -22 167 -25 437 -5 571 7 50 33 196 57 325 25 129 74 395 109 590 77
424 121 649 180 910 96 424 174 956 205 1395 18 254 31 386 40 410 16 41 217
92 560 140 485 69 644 141 1270 579 102 71 255 182 340 247 194 146 228 165
425 234 88 31 183 65 210 76 28 10 68 18 91 19 27 0 54 9 79 26 36 24 53 26
98 8 10 -3 33 10 60 35 24 23 49 41 55 41 17 0 56 -59 86 -130 15 -36 61 -155
103 -265 97 -259 138 -355 239 -556 157 -314 355 -635 518 -838 113 -141 325
-377 614 -683 141 -150 328 -351 415 -445 184 -200 282 -291 514 -476 211
-169 293 -245 407 -377 289 -337 535 -890 595 -1340 33 -250 13 -951 -32
-1088 -24 -75 -147 -129 -371 -163 -76 -11 -149 -28 -175 -41 -106 -51 -347
-272 -391 -358 -33 -65 -22 -140 21 -140 10 0 44 14 74 31 l55 31 44 -40 c37
-34 54 -42 117 -53 140 -26 621 -9 744 26 28 8 75 32 105 53 30 22 92 60 138
87 96 55 165 118 217 199 44 69 55 126 90 461 26 247 40 335 57 370 6 11 35
57 66 102 63 93 61 86 44 273 -29 309 -43 1104 -26 1469 l7 148 -109 119
c-173 190 -341 369 -603 643 -134 141 -272 294 -307 341 -72 95 -461 742 -519
863 l-16 32 26 -30 c14 -16 80 -106 147 -200 250 -349 301 -409 503 -579 66
-55 219 -198 340 -316 273 -266 372 -356 595 -541 190 -158 196 -164 381 -409
410 -541 525 -752 626 -1145 21 -86 26 -129 30 -300 5 -208 -11 -982 -20 -991
-3 -3 -113 -45 -244 -93 -131 -49 -248 -93 -258 -99 -11 -6 -51 -43 -90 -82
-38 -39 -102 -94 -142 -121 -72 -51 -110 -95 -138 -161 -26 -64 -20 -93 28
-142 53 -52 102 -64 306 -73 105 -5 154 -2 231 12 l98 18 38 -24 c37 -23 47
-24 189 -23 186 2 318 18 365 46 58 35 211 162 273 227 90 94 91 99 81 351
-11 268 -9 558 6 805 21 354 50 769 71 1005 12 139 21 321 22 445 1 337 -11
364 -256 599 -174 166 -280 281 -441 484 -182 229 -276 385 -370 617 -21 50
-68 153 -107 230 -40 81 -78 174 -90 220 -24 96 -38 315 -20 315 6 0 42 -15
79 -34 144 -72 351 -132 594 -171 86 -14 169 -25 183 -25 l26 0 -21 27 c-29
37 -15 43 100 43 244 0 528 77 691 186 85 58 197 160 223 204 l19 33 -38 -7
-37 -7 19 32 c20 35 43 52 117 89 62 30 66 40 127 295 37 157 42 194 42 295 1
133 -31 303 -88 478 -40 122 -44 130 -76 146 -13 6 -55 59 -94 117 -98 148
-128 183 -199 234 -117 83 -457 241 -649 300 -84 26 -88 27 -101 10 -12 -17
-21 -18 -137 -7 -260 25 -387 13 -443 -43 -38 -37 -66 -124 -66 -202 0 -62 30
-104 146 -209 106 -94 174 -144 264 -190 88 -46 218 -164 245 -223 22 -49 14
-87 -21 -103 -89 -41 -348 137 -520 357 -76 97 -202 294 -220 344 -10 25 -37
93 -62 151 -127 301 -152 365 -191 477 -63 182 -71 232 -71 445 0 336 -30 559
-111 834 -123 417 -250 636 -534 919 -291 292 -710 561 -1072 688 -310 110
-829 201 -1338 236 -271 19 -786 33 -980 27 -349 -12 -511 -26 -905 -81 -510
-71 -777 -93 -1230 -101 -422 -7 -975 7 -1010 26 -14 7 -63 50 -110 95 -135
130 -271 221 -357 240 -18 3 -43 19 -55 35 -19 23 -35 31 -86 39 -87 14 -151
52 -238 144 -103 107 -151 212 -104 224 11 3 20 10 20 15 0 14 -172 189 -301
304 -65 58 -122 118 -129 133 -6 15 -10 56 -8 90 l3 63 39 -31 c21 -17 46 -31
54 -31 21 0 98 86 122 136 26 53 25 116 -2 270 l-21 123 21 83 c12 46 41 151
66 233 60 205 81 334 70 439 -10 96 -11 358 -1 436 l7 56 -56 39 c-30 22 -71
64 -91 94 -55 82 -135 109 -404 135 -80 8 -155 19 -165 26 -10 6 -36 37 -56
69 -20 31 -71 96 -112 143 l-75 86 -68 6 c-37 3 -108 8 -158 11 -133 9 -265
32 -347 60 -117 40 -237 56 -438 60 -102 2 -201 1 -220 -1z"/>
    </g>
</svg>
