<?xml version="1.0" standalone="no"?>
<!DOCTYPE svg PUBLIC "-//W3C//DTD SVG 20010904//EN"
 "http://www.w3.org/TR/2001/REC-SVG-20010904/DTD/svg10.dtd">
<svg version="1.0" xmlns="http://www.w3.org/2000/svg"
 width="1536.000000pt" height="748.000000pt" viewBox="0 0 1536.000000 748.000000"
 preserveAspectRatio="xMidYMid meet">
<metadata>
Created by potrace 1.16, written by Peter Selinger 2001-2019
</metadata>
<g transform="translate(0.000000,748.000000) scale(0.100000,-0.100000)"
fill="#000000" stroke="none">
<path d="M2275 7466 c-92 -40 -167 -203 -182 -394 -4 -53 -9 -78 -14 -69 -5 8
-20 17 -33 21 -14 3 -26 16 -30 29 -8 35 -78 138 -122 182 -122 119 -229 126
-262 17 -17 -56 -15 -114 9 -212 35 -153 35 -146 -1 -165 -17 -9 -45 -31 -61
-49 -33 -38 -122 -88 -194 -109 -54 -16 -383 -198 -501 -278 -80 -53 -161
-138 -171 -178 -11 -48 -52 -120 -79 -138 -15 -10 -61 -52 -103 -93 -42 -42
-90 -82 -106 -89 -54 -24 -374 -387 -413 -468 -16 -33 -15 -38 6 -98 22 -61
23 -65 6 -96 -24 -47 -15 -184 15 -233 32 -51 104 -111 150 -125 23 -6 41 -18
41 -25 0 -19 31 -43 67 -50 43 -10 179 10 266 39 52 16 107 25 195 29 183 10
573 60 982 127 330 54 408 74 553 140 254 117 398 149 449 102 13 -11 48 -28
78 -37 112 -31 192 -98 409 -339 69 -76 140 -147 158 -158 45 -28 203 -165
238 -207 16 -19 85 -79 154 -135 140 -112 194 -166 213 -212 7 -16 18 -35 26
-40 7 -6 25 -38 38 -70 57 -134 58 -138 58 -355 1 -244 -6 -223 148 -450 57
-85 130 -204 162 -265 32 -60 87 -154 122 -208 41 -62 59 -99 51 -101 -6 -2
-61 -12 -122 -21 -60 -9 -117 -23 -125 -29 -16 -13 -299 -85 -436 -112 -44 -8
-135 -17 -204 -20 -69 -3 -177 -12 -240 -20 -134 -18 -131 -16 -185 -145 -19
-47 -47 -96 -60 -109 -14 -13 -25 -29 -25 -37 0 -7 -13 -55 -30 -106 -16 -52
-30 -108 -30 -126 0 -38 148 -332 170 -338 8 -3 42 -48 74 -101 33 -54 180
-280 328 -503 201 -305 279 -432 312 -509 25 -56 46 -103 48 -104 2 -1 35 -21
75 -44 39 -23 90 -63 113 -89 110 -125 237 -203 341 -208 35 -2 72 -11 92 -22
21 -13 61 -22 113 -26 45 -3 101 -13 125 -21 49 -18 107 -20 128 -7 13 8 13
15 2 49 -38 113 -74 140 -191 141 l-65 1 -12 63 c-28 145 -139 293 -304 403
-68 45 -84 52 -145 57 -60 5 -72 10 -91 34 -62 77 -200 273 -247 351 -29 48
-88 137 -131 197 -91 129 -113 172 -161 303 -52 142 -58 185 -35 230 40 77
140 147 246 171 57 12 79 13 417 5 216 -5 265 -3 388 15 164 24 204 26 217 9
11 -14 31 -414 43 -813 3 -137 11 -251 17 -266 13 -31 79 -89 143 -126 25 -15
91 -57 146 -93 56 -37 123 -73 148 -80 74 -21 163 -7 366 56 368 113 455 134
595 144 521 38 477 25 810 234 63 39 115 85 115 100 0 26 38 77 88 115 37 30
52 48 52 66 0 33 -27 39 -151 33 -89 -4 -99 -3 -99 12 0 36 -66 39 -210 10
-125 -25 -256 -71 -456 -159 -311 -137 -782 -226 -949 -180 -50 14 -135 96
-135 130 0 12 32 110 70 215 93 256 123 386 143 608 2 25 8 31 49 43 59 17
118 72 118 111 0 49 11 70 51 98 57 39 137 149 239 329 49 88 94 166 98 173 6
9 43 17 103 22 156 13 288 57 394 130 l47 32 282 6 c291 5 341 2 848 -44 195
-17 334 -24 509 -24 l241 0 206 46 c149 33 231 56 292 84 104 48 160 70 318
126 68 24 171 64 229 90 129 56 195 63 222 25 9 -13 55 -65 102 -115 47 -50
104 -114 128 -143 53 -66 118 -98 236 -117 119 -20 339 -36 501 -36 l131 0 49
-57 c114 -136 192 -188 391 -261 86 -32 83 -25 83 -226 0 -229 -36 -425 -136
-756 -183 -605 -191 -673 -89 -716 33 -13 194 -185 271 -289 157 -212 464
-413 533 -350 28 24 60 168 44 190 -5 6 -30 27 -56 49 -44 35 -47 40 -33 55 9
10 21 31 27 48 9 27 6 39 -22 94 -75 149 -173 269 -220 269 -9 0 -31 12 -49
26 -27 23 -30 32 -29 69 2 38 -3 50 -37 90 -65 78 -68 85 -70 149 -3 92 90
384 177 558 61 121 150 267 245 400 46 64 84 121 84 125 0 4 14 28 30 53 37
56 38 92 4 176 -14 36 -24 67 -22 69 5 5 311 53 418 66 52 6 100 15 105 19 20
16 101 32 204 40 78 5 124 14 174 34 l67 27 127 -26 c297 -63 482 -164 565
-313 17 -29 37 -56 44 -59 8 -3 62 -102 121 -221 60 -119 132 -253 162 -297
69 -102 119 -210 136 -291 7 -35 23 -76 35 -91 35 -45 156 -130 357 -252 160
-97 202 -128 284 -208 66 -66 102 -94 115 -91 29 5 49 73 36 123 -6 22 -9 41
-8 43 2 1 33 -12 69 -29 72 -33 123 -36 141 -7 14 23 -8 66 -78 151 -60 73
-63 81 -69 169 -2 31 -11 67 -20 81 -9 14 -72 70 -140 124 -68 54 -151 130
-185 169 -81 95 -100 109 -187 135 -51 15 -76 28 -80 40 -9 27 -113 180 -190
279 -91 117 -169 250 -205 348 -27 73 -30 95 -30 194 0 143 -11 178 -80 252
-31 34 -93 107 -138 163 -45 55 -92 109 -105 120 -13 10 -35 43 -49 74 -31 69
-91 137 -136 156 -48 20 -110 8 -160 -31 l-41 -33 -268 -9 c-147 -4 -374 -9
-503 -9 -217 0 -241 2 -307 23 -127 40 -168 100 -143 211 19 86 13 158 -36
451 -41 241 -48 301 -54 485 -6 175 -12 228 -34 322 -32 137 -33 163 -3 190
47 44 179 79 347 93 58 5 141 17 185 28 44 11 123 28 175 37 234 43 401 113
490 205 30 31 114 106 185 165 72 60 162 137 200 171 39 34 105 81 148 103
125 64 197 133 197 188 0 9 14 32 32 50 32 33 31 37 -15 45 -16 3 -16 6 7 37
14 19 47 52 73 74 52 43 83 89 65 95 -8 2 -7 13 4 35 9 17 16 48 16 70 -1 21
8 52 19 70 10 18 19 37 19 42 -1 6 -11 -8 -23 -30 -19 -36 -22 -38 -25 -17 -6
37 23 97 109 228 43 66 79 126 79 132 0 7 32 45 70 86 39 40 70 76 70 80 0 19
-36 0 -94 -50 -36 -30 -66 -52 -66 -49 0 20 124 132 244 222 76 56 137 104
135 104 -47 16 -156 -28 -313 -125 -89 -56 -122 -66 -144 -44 -8 8 -15 8 -29
-3 -26 -20 20 34 107 125 41 43 66 73 54 68 -12 -6 -57 -50 -102 -97 -44 -47
-85 -85 -90 -85 -6 0 -34 -27 -62 -61 -53 -60 -120 -105 -145 -95 -7 2 -18 -1
-24 -7 -7 -7 -11 -7 -11 -1 0 6 15 23 32 40 18 16 24 19 14 6 -11 -12 -17 -25
-13 -28 5 -5 31 33 32 48 0 3 3 10 8 14 10 10 9 24 -3 24 -5 0 -28 -24 -51
-52 -43 -55 -66 -74 -77 -64 -9 9 91 107 181 178 73 59 92 77 65 63 -7 -4 -4
1 6 9 11 9 16 16 11 16 -5 0 4 13 20 30 16 16 26 32 24 35 -11 10 -152 -100
-206 -161 -32 -36 -73 -77 -93 -91 l-35 -26 25 29 c13 16 40 47 60 68 l35 40
-65 -46 c-36 -25 -81 -66 -100 -93 -118 -161 -125 -169 -185 -199 -81 -42
-181 -144 -227 -231 -39 -76 -68 -163 -68 -206 0 -14 -7 -32 -14 -39 -20 -16
-34 -92 -44 -249 l-9 -134 -72 -142 c-71 -138 -74 -142 -124 -168 -29 -15 -68
-36 -88 -47 -90 -51 -401 -106 -539 -96 -151 10 -321 41 -400 73 -101 41 -269
95 -610 197 -157 46 -388 123 -515 169 -275 101 -473 166 -615 201 -250 61
-596 106 -817 106 -183 0 -575 30 -1048 80 -334 35 -464 36 -755 6 -267 -28
-456 -63 -1055 -192 -718 -156 -801 -167 -1105 -153 -85 3 -167 4 -182 2 -25
-5 -28 -2 -28 21 0 25 -3 26 -51 26 -43 0 -54 4 -72 26 -20 25 -23 26 -104 22
-57 -3 -80 -1 -73 6 16 16 12 23 -15 30 -15 4 -27 16 -31 31 -5 20 -10 24 -31
19 -19 -5 -25 -2 -30 15 -3 13 -11 20 -19 17 -8 -3 -14 -2 -14 2 0 4 -18 7
-40 7 -22 0 -40 -3 -40 -7 0 -14 -29 -8 -38 8 -8 14 -15 13 -61 -11 -29 -14
-56 -24 -59 -21 -3 4 3 19 14 34 11 15 23 32 26 37 4 7 -20 9 -69 6 -54 -2
-74 0 -69 8 11 17 -10 13 -24 -4 -15 -18 -37 -20 -43 -2 -3 9 -11 9 -38 0 -19
-7 -44 -10 -57 -6 -22 5 -22 6 -6 24 26 29 9 34 -26 9 l-31 -22 -19 20 c-10
11 -25 22 -32 25 -10 4 -9 9 5 17 18 12 24 40 7 40 -5 0 -21 -12 -35 -26 -18
-18 -30 -23 -38 -16 -7 5 -29 15 -49 21 -28 9 -35 16 -31 28 5 13 2 15 -13 9
-27 -11 -26 -11 -62 -2 l-34 8 33 34 c18 18 30 37 26 40 -4 4 -18 -5 -33 -19
l-26 -26 -24 28 c-13 16 -43 36 -65 45 -39 16 -41 18 -23 32 17 14 15 14 -26
8 -40 -6 -43 -5 -31 10 15 18 1 22 -16 5 -15 -15 -63 3 -90 33 -17 19 -17 20
2 34 28 21 6 39 -28 23 -23 -10 -30 -9 -45 4 -10 10 -31 17 -45 17 -28 0 -34
16 -28 80 2 23 1 23 -16 9 -20 -17 -89 -22 -107 -8 -6 4 -24 20 -41 34 -19 17
-37 24 -50 21 -17 -5 -17 -3 5 15 20 16 15 15 -27 -5 -58 -29 -62 -30 -83 -16
-12 7 -11 13 10 36 l25 28 -36 -21 c-31 -18 -39 -19 -61 -7 -26 14 -45 44 -28
44 6 0 10 5 10 11 0 5 -4 7 -10 4 -5 -3 -15 -3 -21 1 -8 5 -4 13 12 26 20 17
21 19 4 13 -11 -5 -40 -11 -65 -15 -25 -5 -56 -11 -70 -16 -14 -4 -22 -3 -17
1 4 5 0 18 -8 31 -13 20 -12 23 2 28 9 4 13 9 10 12 -3 3 -14 1 -25 -5 -14 -8
-29 -7 -52 0 -23 9 -38 8 -57 0 -23 -10 -29 -9 -46 8 -19 19 -19 19 12 35 43
22 39 29 -6 12 -69 -26 -94 -28 -114 -11 -9 9 -15 23 -12 31 6 16 -13 19 -22
4 -3 -5 -30 -10 -60 -10 -30 0 -65 -4 -79 -10 -22 -8 -26 -7 -26 8 0 34 -31
137 -59 197 -65 139 -170 203 -266 161z m12435 -90 c0 -2 -7 -7 -16 -10 -8 -3
-12 -2 -9 4 6 10 25 14 25 6z m-240 -169 c0 -2 -15 -16 -32 -33 l-33 -29 29
33 c28 30 36 37 36 29z m-157 -210 c-80 -112 -82 -113 -92 -97 -8 12 5 30 57
83 36 37 68 67 70 67 2 0 -14 -24 -35 -53z m-53 40 c0 -2 -10 -12 -22 -23
l-23 -19 19 23 c18 21 26 27 26 19z m-560 -172 c-13 -14 -33 -25 -44 -25 -16
0 -14 4 14 25 19 14 38 25 44 25 5 0 -1 -11 -14 -25z m-30 -55 c0 -5 -27 -36
-59 -68 -33 -32 -67 -77 -77 -101 -9 -23 -19 -40 -21 -37 -8 7 32 90 51 105 9
8 14 21 11 30 -3 11 7 28 27 47 l33 29 -29 -32 c-43 -48 -27 -50 19 -3 42 43
45 45 45 30z m-102 -190 c-9 -27 -28 -50 -28 -35 0 9 30 65 35 65 2 0 -1 -14
-7 -30z m-71 -82 c-3 -8 -6 -5 -6 6 -1 11 2 17 5 13 3 -3 4 -12 1 -19z m-10
-40 c-3 -8 -6 -5 -6 6 -1 11 2 17 5 13 3 -3 4 -12 1 -19z m-10 -40 c-3 -8 -6
-5 -6 6 -1 11 2 17 5 13 3 -3 4 -12 1 -19z"/>
</g>
</svg>
