<?xml version="1.0" standalone="no"?>
<!DOCTYPE svg PUBLIC "-//W3C//DTD SVG 20010904//EN"
        "http://www.w3.org/TR/2001/REC-SVG-20010904/DTD/svg10.dtd">
<svg version="1.0" xmlns="http://www.w3.org/2000/svg"
     width="2611.000000pt" height="2124.000000pt" viewBox="0 0 2611.000000 2124.000000"
     preserveAspectRatio="xMidYMid meet">
    <metadata>
        Created by potrace 1.16, written by Peter Selinger 2001-2019
    </metadata>
    <g transform="translate(0.000000,2124.000000) scale(0.100000,-0.100000)"
       fill="#000000" stroke="none">
        <path d="M1503 21219 c-58 -18 -62 -22 -80 -67 -10 -26 -18 -69 -18 -97 0 -42
7 -60 43 -115 61 -92 208 -394 447 -915 158 -346 261 -554 447 -899 132 -247
251 -459 264 -470 l24 -21 -245 -220 -245 -220 -131 -210 c-345 -551 -362
-575 -501 -738 l-137 -161 -8 -86 c-4 -47 -7 -137 -7 -200 0 -105 4 -126 38
-239 l39 -123 -33 -87 c-18 -47 -70 -161 -116 -254 -46 -92 -161 -333 -255
-535 -219 -472 -230 -492 -461 -902 -190 -339 -196 -350 -306 -635 -61 -160
-145 -392 -187 -515 l-75 -224 51 -251 52 -250 57 -80 c32 -44 106 -150 165
-235 161 -233 353 -468 417 -510 67 -44 202 -98 270 -110 29 -4 96 -29 148
-54 115 -56 188 -69 350 -65 l117 4 120 115 c105 100 138 124 245 182 103 56
136 80 199 145 75 78 75 78 109 193 28 98 41 126 87 187 30 39 64 78 76 85 12
8 83 41 157 73 117 50 148 69 235 141 57 47 145 108 205 140 338 184 1008 587
1370 824 91 59 211 132 268 161 l103 54 126 -64 c158 -80 374 -250 543 -426
164 -172 250 -255 370 -355 105 -88 220 -211 385 -410 109 -131 227 -251 525
-535 129 -123 324 -317 432 -432 l197 -208 248 -375 c306 -462 344 -539 398
-797 19 -92 43 -226 54 -298 21 -133 74 -317 114 -392 12 -24 74 -108 137
-188 110 -139 119 -148 259 -247 169 -120 405 -335 420 -382 8 -26 27 -200 45
-416 3 -30 1 -142 -4 -250 -5 -107 -19 -427 -30 -710 -23 -564 -23 -573 -80
-1035 -33 -265 -52 -375 -110 -639 -39 -175 -72 -322 -75 -326 -3 -5 -27 -93
-54 -197 -27 -103 -65 -243 -85 -311 -40 -138 -43 -175 -22 -342 8 -63 17
-250 20 -415 l6 -301 -31 -144 c-39 -188 -68 -337 -124 -650 -37 -206 -62
-310 -131 -545 -141 -475 -133 -455 -241 -622 -53 -81 -115 -189 -139 -240
-23 -50 -59 -110 -79 -132 -21 -23 -115 -105 -211 -183 -154 -126 -197 -156
-381 -258 -241 -133 -417 -264 -409 -303 3 -12 7 -45 11 -73 6 -60 20 -38
-298 -494 -113 -162 -205 -296 -203 -297 1 -1 330 -11 731 -23 l730 -20 105
55 c77 40 123 73 173 122 l68 68 -3 90 c-3 90 -4 92 -51 160 -26 39 -47 79
-47 91 0 12 47 72 118 150 96 105 132 138 197 176 302 176 472 293 549 379 80
88 145 202 171 300 35 134 61 266 79 405 20 153 64 385 181 949 51 248 123
613 160 813 l67 363 85 176 c46 97 117 233 158 303 148 256 151 268 294 1080
67 381 170 831 250 1092 80 263 359 1010 496 1328 151 353 169 390 189 389 11
0 231 -262 931 -1108 l410 -496 361 -535 c198 -294 447 -677 554 -850 159
-260 235 -370 431 -630 198 -263 272 -372 450 -660 192 -311 228 -377 369
-675 231 -486 285 -609 313 -720 14 -55 51 -183 82 -285 86 -284 195 -721 190
-761 -3 -19 -10 -74 -16 -124 -10 -78 -20 -110 -79 -235 -66 -139 -120 -289
-120 -331 0 -10 12 -40 27 -67 l26 -47 -202 -348 c-112 -192 -201 -351 -198
-353 4 -4 190 -20 1012 -87 l150 -13 145 97 c137 90 150 102 227 201 134 171
153 203 153 258 0 61 -27 98 -211 292 -25 25 -59 74 -77 108 -29 57 -32 71
-32 149 0 85 24 445 36 551 4 30 40 163 80 295 42 136 74 258 74 282 0 24 -11
132 -25 240 -36 282 -66 363 -197 538 -166 221 -334 476 -505 765 -316 537
-434 745 -453 805 -7 22 -55 146 -108 275 -130 323 -131 326 -153 496 -10 83
-25 186 -34 229 -15 80 -25 100 -339 670 -36 66 -153 311 -260 545 -107 234
-229 488 -271 565 -43 77 -129 237 -192 355 -64 118 -146 269 -184 335 -38 66
-110 214 -159 328 l-90 208 0 105 c0 59 4 104 10 104 5 0 125 18 267 40 l258
39 865 10 c476 6 1097 9 1380 8 612 -2 783 5 935 40 460 105 765 186 976 262
525 187 565 203 794 329 449 246 455 250 642 403 98 80 183 148 189 152 7 4
84 -78 197 -211 156 -183 236 -265 509 -521 177 -167 508 -490 733 -716 357
-359 466 -461 845 -792 l435 -379 201 -326 201 -325 11 -277 11 -277 -70 -287
c-97 -400 -127 -509 -159 -572 -44 -88 -277 -639 -471 -1115 -160 -391 -192
-462 -293 -640 -62 -110 -130 -231 -151 -269 l-39 -69 32 -126 c18 -69 42
-187 53 -261 l21 -135 -21 -290 c-12 -159 -35 -414 -51 -564 -21 -201 -26
-281 -18 -295 6 -12 27 -39 48 -61 l38 -40 97 -505 c53 -278 98 -513 101 -522
4 -14 39 5 189 105 205 137 193 125 502 506 164 200 202 259 318 477 l59 110
-34 186 -34 185 -145 62 c-80 34 -154 68 -164 75 -17 13 -18 23 -8 130 6 63
16 127 22 142 5 15 40 59 77 98 81 86 205 233 220 262 14 27 67 238 86 344 8
47 20 159 26 250 6 91 13 181 16 200 6 36 167 574 231 775 20 61 91 232 158
380 67 149 171 379 230 513 59 133 111 240 114 237 3 -4 18 -59 33 -123 24
-105 29 -156 44 -498 18 -378 18 -383 -5 -865 -12 -266 -36 -650 -52 -854 -33
-425 -57 -555 -149 -800 -49 -132 -52 -142 -51 -234 0 -53 3 -130 6 -171 8
-93 -21 -216 -63 -271 -74 -99 -480 -530 -549 -585 -75 -59 -80 -65 -120 -158
l-42 -97 -212 -217 c-251 -257 -359 -378 -359 -402 0 -16 17 -18 156 -25 86
-4 471 -4 855 0 l699 8 9 36 c6 20 24 92 41 161 l32 125 -17 75 c-10 41 -19
84 -22 96 -5 25 91 134 229 259 95 84 181 186 360 423 70 92 98 142 153 265
55 124 69 166 75 227 5 41 11 426 15 855 l6 780 50 545 c93 1008 174 1740 236
2134 56 350 58 367 56 538 l-2 178 -250 497 c-263 525 -279 560 -476 1088
-110 293 -138 383 -239 758 l-115 425 39 418 39 419 71 270 c153 584 126 506
377 1095 215 505 283 669 283 684 0 6 31 122 69 256 54 190 78 296 106 475 33
205 137 667 155 688 10 12 57 -287 101 -653 40 -333 40 -337 42 -720 1 -377
-5 -546 -43 -1160 -18 -296 -18 -316 -1 -665 l18 -360 144 -407 145 -406 37
71 37 72 133 78 c72 42 162 100 199 127 66 49 67 50 92 132 14 46 42 147 62
225 l37 142 -16 63 c-34 140 -49 165 -182 308 -70 74 -137 149 -150 165 -27
34 -35 88 -131 832 l-57 438 -7 500 c-5 336 -14 614 -29 850 l-23 350 -74 290
c-84 327 -65 281 -346 793 l-133 242 -339 395 c-375 438 -316 383 -711 662
-503 355 -591 411 -980 630 -214 121 -430 236 -480 256 -49 19 -218 88 -375
152 l-285 117 -425 60 c-234 33 -452 62 -485 64 -51 5 -121 -9 -470 -90 -1051
-243 -1845 -423 -2540 -575 -126 -27 -495 -100 -820 -161 -324 -62 -646 -122
-715 -135 -69 -13 -208 -40 -310 -59 -192 -36 -258 -46 -1050 -147 -948 -121
-766 -108 -1665 -121 l-800 -11 -260 27 c-445 45 -481 45 -750 -2 -613 -109
-632 -112 -1343 -201 l-394 -50 -181 64 c-342 119 -579 213 -636 252 -134 91
-511 395 -738 594 -144 127 -360 297 -874 690 -776 592 -707 544 -1209 846
-256 154 -629 369 -830 479 -290 158 -508 289 -548 329 -2 2 -23 154 -47 337
l-43 334 -50 120 c-65 154 -199 442 -244 521 -48 87 -217 245 -304 284 -35 16
-74 29 -88 29 -39 0 -170 -31 -182 -44 -23 -23 -43 -175 -49 -370 l-6 -200
-46 -155 c-25 -86 -52 -183 -58 -216 -16 -77 -29 -823 -16 -880 6 -22 8 -41 7
-43 -2 -1 -69 55 -148 125 -146 130 -190 174 -445 450 -77 84 -212 219 -299
300 -87 81 -357 342 -599 579 -377 369 -538 516 -564 513 -3 0 -34 -9 -68 -20z"/>
    </g>
</svg>
