<?xml version="1.0" standalone="no"?>
<!DOCTYPE svg PUBLIC "-//W3C//DTD SVG 20010904//EN"
        "http://www.w3.org/TR/2001/REC-SVG-20010904/DTD/svg10.dtd">
<svg version="1.0" xmlns="http://www.w3.org/2000/svg"
     width="1536.000000pt" height="1091.000000pt" viewBox="0 0 1536.000000 1091.000000"
     preserveAspectRatio="xMidYMid meet">
    <metadata>
        Created by potrace 1.16, written by Peter Selinger 2001-2019
    </metadata>
    <g transform="translate(0.000000,1091.000000) scale(0.100000,-0.100000)"
       fill="#000000" stroke="none">
        <path d="M7633 10900 c-34 -5 -76 -16 -95 -26 -71 -37 -238 -236 -238 -284 0
-31 -76 -133 -167 -223 -148 -147 -209 -177 -366 -177 -77 0 -98 4 -159 31
-58 25 -91 32 -198 41 -152 12 -293 0 -343 -30 -44 -26 -77 -32 -262 -41 -173
-10 -208 -19 -273 -70 -30 -25 -107 -51 -149 -51 -2 0 -25 -22 -51 -49 -41
-42 -55 -50 -97 -56 -72 -9 -101 -23 -130 -61 -28 -37 -73 -54 -145 -54 -67
-1 -130 -18 -161 -44 -16 -13 -48 -27 -71 -31 -68 -10 -96 -25 -117 -60 -15
-25 -31 -37 -63 -45 -24 -6 -61 -16 -82 -22 -30 -7 -61 -32 -125 -95 -86 -87
-142 -122 -196 -123 -47 0 -72 -23 -79 -73 -9 -56 -49 -119 -130 -206 -84 -90
-90 -110 -83 -290 6 -163 23 -234 62 -265 19 -16 28 -36 35 -81 24 -147 221
-315 393 -336 120 -14 137 -19 137 -36 0 -9 -53 -71 -119 -137 -130 -133 -181
-198 -181 -231 0 -54 -100 -165 -167 -185 -24 -8 -190 -15 -448 -20 -225 -4
-421 -10 -435 -13 -14 -3 -37 -8 -52 -11 -15 -4 -40 -20 -55 -36 -45 -48 -101
-53 -513 -53 -425 0 -470 5 -513 58 -33 40 -89 59 -145 49 -26 -5 -51 -21 -83
-55 -34 -35 -56 -49 -85 -54 -55 -9 -92 -27 -141 -68 -24 -19 -56 -38 -73 -41
-16 -3 -43 -9 -59 -12 -17 -3 -46 -18 -66 -34 -23 -18 -54 -32 -83 -36 -60 -9
-94 -26 -111 -57 -18 -34 -52 -47 -146 -57 -98 -10 -126 -20 -178 -65 -29 -25
-57 -38 -100 -46 -41 -8 -72 -22 -101 -46 -52 -42 -113 -72 -148 -73 -17 0
-40 -12 -61 -33 -26 -27 -45 -35 -87 -41 -65 -9 -102 -27 -124 -61 -22 -34
-73 -55 -130 -55 -61 0 -76 -22 -76 -115 1 -101 17 -258 31 -288 13 -28 54
-47 101 -47 23 0 42 12 77 49 36 37 58 51 87 56 21 3 51 9 67 12 16 3 40 21
59 44 35 44 64 55 167 63 76 7 135 28 184 68 27 21 37 23 137 20 l109 -3 25
40 c30 46 45 56 104 66 26 4 62 21 89 42 63 48 102 63 181 69 87 7 146 28 162
59 16 29 67 55 109 55 37 0 101 25 101 39 0 20 72 32 248 43 252 15 502 0 576
-36 70 -34 73 -34 206 -51 136 -16 193 -36 188 -62 -2 -13 -20 -21 -68 -31
-71 -14 -119 -41 -195 -112 -67 -62 -95 -78 -156 -91 -30 -7 -61 -21 -73 -34
-12 -12 -31 -34 -44 -48 -14 -16 -39 -29 -60 -32 -56 -9 -98 -31 -148 -77 -77
-71 -87 -101 -79 -237 7 -114 6 -117 -19 -151 -63 -88 -76 -142 -76 -334 -1
-140 -12 -257 -30 -296 -6 -14 -21 -40 -35 -58 -36 -49 -44 -110 -51 -365 -6
-269 -15 -328 -50 -356 -46 -36 -57 -82 -61 -256 -3 -133 0 -168 14 -210 15
-41 23 -51 44 -53 16 -2 37 6 55 21 41 34 62 43 118 52 41 6 56 14 96 56 26
27 51 49 55 49 4 0 45 -36 91 -80 100 -96 140 -111 296 -112 132 -1 152 9 303
151 210 198 284 209 298 43 4 -52 27 -92 53 -92 7 0 36 20 64 44 30 26 69 48
95 55 57 14 130 71 307 239 138 130 164 149 278 201 47 22 170 146 218 220 22
33 42 78 46 101 6 39 13 49 79 108 15 14 29 39 33 60 10 66 24 99 50 123 33
30 64 91 64 123 0 33 20 76 36 76 21 0 35 61 44 198 7 113 12 139 33 180 71
132 69 123 78 317 9 219 15 255 39 255 38 0 150 -155 150 -208 0 -42 24 -84
61 -108 31 -19 41 -34 54 -76 9 -31 36 -79 65 -117 122 -157 411 -441 525
-516 28 -18 65 -36 82 -40 18 -4 41 -17 51 -29 28 -36 56 -46 149 -55 94 -9
118 -17 172 -56 40 -30 91 -45 149 -45 76 0 130 -19 161 -57 30 -37 86 -62
138 -63 42 0 61 -21 68 -78 9 -69 23 -98 61 -127 33 -25 46 -56 59 -139 5 -29
18 -51 51 -82 37 -36 43 -48 38 -69 -9 -36 2 -70 35 -107 41 -49 52 -89 61
-234 8 -136 22 -184 60 -204 33 -18 54 -110 54 -240 0 -135 -16 -216 -50 -262
-40 -56 -55 -98 -64 -184 -9 -89 -29 -139 -59 -149 -33 -10 -51 -76 -51 -183
0 -110 18 -188 51 -218 29 -26 59 -88 59 -121 0 -35 32 -89 58 -97 39 -13 52
-74 52 -241 l0 -155 -437 0 c-255 0 -465 -5 -503 -11 -56 -9 -70 -15 -101 -49
-19 -21 -49 -42 -65 -45 -58 -12 -111 -44 -194 -117 -95 -83 -170 -182 -153
-199 18 -18 204 -28 508 -29 154 0 344 -5 422 -10 146 -9 154 -11 265 -71 44
-24 199 -38 413 -39 157 0 235 -12 273 -40 25 -19 50 -23 166 -30 150 -10 194
-20 244 -57 49 -37 94 -52 174 -59 83 -7 134 -27 144 -56 7 -24 61 -58 92 -58
36 0 91 -27 133 -65 21 -19 51 -37 66 -41 96 -21 106 -27 181 -98 86 -81 100
-90 157 -100 73 -13 195 -112 195 -159 0 -17 -20 -22 -122 -32 -98 -9 -176
-51 -269 -144 -49 -49 -86 -97 -105 -136 -26 -54 -29 -70 -29 -155 0 -53 6
-112 14 -133 15 -44 60 -77 106 -77 73 -1 96 -23 110 -110 5 -30 18 -55 40
-77 58 -58 121 -56 163 7 30 45 57 59 112 60 45 0 110 -29 110 -50 0 -27 41
-50 88 -50 79 0 99 25 122 150 7 35 22 85 35 110 58 114 180 242 243 256 62
13 91 32 172 110 47 45 100 89 117 98 18 9 77 21 131 26 115 11 126 14 146 45
10 15 30 26 53 30 67 12 100 25 124 51 31 33 91 64 124 64 37 0 65 16 105 62
l35 40 116 13 c125 13 147 21 176 61 25 34 102 54 213 54 96 1 167 14 192 36
25 24 179 33 693 43 278 5 474 13 495 20 19 6 43 22 55 36 13 16 37 29 70 36
28 5 297 14 615 19 311 5 584 13 608 18 26 6 57 22 76 41 48 46 97 51 576 51
l415 0 142 138 c170 164 227 234 248 304 8 29 27 64 41 79 16 17 26 40 27 60
3 48 -32 62 -167 67 -150 6 -207 -8 -262 -63 -35 -34 -53 -44 -92 -49 -29 -4
-68 -19 -93 -36 -69 -45 -146 -50 -834 -56 -649 -5 -778 -12 -831 -44 -45 -28
-123 -37 -446 -51 -226 -10 -342 -10 -550 -1 -306 14 -347 21 -394 62 -19 16
-46 30 -59 30 -60 0 -95 39 -95 106 0 41 12 66 52 112 24 28 28 41 27 84 -2
43 1 54 22 70 54 42 69 61 74 96 13 82 25 109 64 140 39 31 43 40 57 132 5 35
16 53 54 90 36 35 50 57 55 86 10 59 25 92 63 137 31 37 34 46 28 85 -5 37 -2
47 19 68 13 13 29 24 35 24 24 0 42 77 49 210 8 140 16 170 57 205 15 12 28
40 35 70 16 69 24 1414 11 1612 -11 159 -21 198 -54 221 -30 21 -48 73 -48
139 -1 100 -15 144 -62 185 -39 34 -42 40 -43 91 0 47 -5 59 -37 96 -20 24
-39 56 -42 72 -4 16 -9 43 -12 60 -4 20 -25 50 -54 78 -41 40 -49 54 -55 96
-9 71 -23 103 -56 126 -36 25 -59 68 -59 109 0 42 -14 68 -67 117 -33 31 -43
46 -39 61 13 39 -171 249 -544 622 -365 366 -553 532 -623 551 -25 6 -56 28
-85 58 -42 43 -54 49 -112 59 -57 10 -69 16 -100 52 -38 44 -78 60 -152 60
-63 0 -144 18 -159 36 -17 21 -71 32 -199 42 -123 10 -154 21 -234 77 -26 19
-59 35 -73 35 -52 0 -151 74 -195 145 -10 17 -18 49 -18 72 0 36 -5 46 -36 69
-42 32 -64 71 -64 113 0 48 -18 84 -60 121 -30 26 -44 48 -54 87 -17 70 -50
116 -183 254 -62 65 -113 122 -113 128 0 5 16 22 35 37 20 15 41 37 48 48 7
12 14 86 17 179 5 151 6 160 29 178 13 10 28 36 33 56 6 21 13 203 15 408 l5
371 -100 95 c-131 126 -158 139 -320 149 -140 9 -170 17 -198 53 -38 48 -56
51 -269 53 -110 2 -228 -1 -262 -6z m-1930 -3477 c49 -37 125 -140 133 -179 3
-18 1 -41 -5 -52 -15 -28 -64 -46 -106 -38 -36 7 -43 13 -89 71 -22 28 -30 30
-102 35 -43 3 -79 10 -81 16 -5 14 81 109 131 146 49 35 73 35 119 1z m-2385
-1156 c2 -10 -15 -45 -37 -77 -23 -32 -44 -73 -48 -92 -9 -49 -18 -63 -99
-150 -80 -85 -98 -114 -121 -191 -8 -29 -27 -62 -44 -78 -22 -20 -32 -42 -40
-86 -14 -83 -28 -112 -60 -129 -31 -16 -59 -60 -59 -94 0 -34 -36 -95 -96
-162 -57 -64 -93 -126 -94 -163 0 -28 -35 -82 -57 -89 -27 -9 -43 -41 -54
-110 -13 -78 -25 -90 -95 -90 -47 -1 -59 3 -75 23 -17 21 -19 41 -19 200 0
203 8 244 56 286 40 35 54 91 54 221 0 129 17 229 51 293 21 41 32 80 39 143
12 106 24 133 61 147 16 6 44 17 62 23 17 7 56 27 85 44 61 37 124 48 214 39
78 -8 139 9 206 59 62 45 88 56 132 53 25 -1 36 -7 38 -20z m-1042 -1771 c9
-38 1 -61 -23 -64 -27 -4 -41 35 -23 67 15 28 38 27 46 -3z"/>
    </g>
</svg>
