<?xml version="1.0" standalone="no"?>
<!DOCTYPE svg PUBLIC "-//W3C//DTD SVG 20010904//EN"
 "http://www.w3.org/TR/2001/REC-SVG-20010904/DTD/svg10.dtd">
<svg version="1.0" xmlns="http://www.w3.org/2000/svg"
 width="1536.000000pt" height="864.000000pt" viewBox="0 0 1536.000000 864.000000"
 preserveAspectRatio="xMidYMid meet">
<metadata>
Created by potrace 1.16, written by Peter Selinger 2001-2019
</metadata>
<g transform="translate(0.000000,864.000000) scale(0.100000,-0.100000)"
fill="#000000" stroke="none">
<path d="M10445 8630 c-359 -37 -639 -114 -1275 -350 -151 -56 -334 -122 -407
-146 -285 -93 -583 -224 -835 -366 l-91 -51 -91 31 c-154 54 -218 64 -336 57
-58 -4 -116 -13 -130 -21 -14 -7 -73 -36 -133 -63 -192 -89 -247 -167 -422
-603 -48 -120 -93 -218 -99 -218 -6 0 -28 5 -50 11 -21 6 -93 14 -159 17
l-121 7 -98 145 c-54 80 -137 224 -186 320 -56 111 -94 176 -105 178 -12 3
-17 -3 -17 -20 0 -13 -27 -108 -61 -213 -131 -412 -156 -557 -323 -1880 l-92
-731 -31 -44 c-65 -97 -61 -56 -79 -696 -26 -928 -17 -1019 110 -1163 18 -20
59 -79 90 -131 86 -140 133 -200 172 -216 27 -11 95 -14 317 -14 321 0 412 12
527 70 115 58 273 171 480 345 113 95 195 156 253 190 42 24 58 27 123 27 42
-1 84 -4 93 -7 11 -3 29 -35 46 -78 79 -205 123 -249 367 -370 172 -85 173
-85 343 -116 178 -33 395 -88 395 -100 0 -4 20 -22 45 -40 100 -72 99 -81 -8
-214 -46 -56 -93 -116 -105 -134 -40 -57 -113 -49 -225 25 -60 40 -71 45 -80
31 -8 -13 -18 -14 -59 -6 -35 7 -65 6 -103 -2 -79 -18 -94 -34 -101 -108 l-7
-63 123 0 c117 0 122 -1 107 -18 -8 -9 -20 -30 -26 -45 -33 -86 151 -120 389
-71 41 9 80 20 87 26 8 6 22 4 44 -8 39 -20 158 -15 293 10 79 16 81 17 253
148 482 368 587 417 1163 540 l155 32 355 0 c310 0 404 -4 749 -32 217 -18
396 -34 398 -36 6 -6 -86 -84 -147 -126 -101 -69 -221 -124 -760 -351 -69 -28
-137 -60 -151 -70 -15 -10 -83 -43 -151 -73 l-125 -55 -719 -86 c-1106 -133
-1074 -128 -1112 -161 -58 -52 -42 -83 108 -212 89 -75 232 -140 288 -129 15
3 167 -5 337 -18 598 -46 1284 -75 1755 -75 275 0 275 0 560 44 443 69 585
104 778 196 107 51 302 163 407 233 110 74 367 311 490 451 206 235 253 322
370 681 l53 160 289 145 c428 215 517 281 733 550 102 126 115 151 184 350 85
242 97 308 103 540 3 113 0 288 -6 390 -18 295 -51 681 -62 735 -5 28 -16 80
-23 116 -9 49 -28 90 -72 163 -32 53 -65 109 -73 124 -64 129 -268 457 -379
612 -82 115 -255 333 -492 620 -84 102 -195 250 -247 330 -198 300 -336 461
-470 547 -93 59 -251 130 -397 178 -137 45 -625 171 -851 219 -110 23 -616 81
-1060 121 -207 19 -657 27 -780 15z m2525 -6114 c0 -9 -196 -159 -280 -216
-81 -54 -320 -190 -334 -190 -4 0 20 39 53 88 117 170 185 217 410 283 125 37
151 43 151 35z"/>
<path d="M665 3845 c-101 -27 -163 -51 -282 -110 -130 -65 -159 -84 -205 -134
-29 -31 -60 -70 -67 -87 -8 -16 -25 -42 -37 -59 -56 -79 -58 -87 -57 -290 l1
-190 36 -110 c20 -60 46 -123 57 -138 19 -26 20 -33 9 -73 -10 -36 -10 -54 -1
-87 18 -63 216 -405 295 -510 38 -51 75 -105 82 -122 7 -16 21 -40 31 -51 25
-29 103 -84 120 -84 8 0 59 -29 113 -65 106 -71 339 -195 366 -195 9 0 55 -17
103 -39 147 -66 210 -81 376 -90 142 -8 154 -10 209 -40 47 -25 71 -31 117
-31 53 0 59 -2 59 -21 0 -21 -46 -324 -55 -365 -3 -15 -24 -30 -70 -49 -75
-32 -115 -67 -115 -102 0 -35 21 -38 97 -13 186 61 216 76 250 129 44 66 69
132 107 281 l33 125 169 7 c93 4 200 11 237 16 62 8 73 6 114 -15 30 -14 64
-23 94 -23 64 0 153 34 181 69 20 25 34 30 108 41 47 6 112 23 145 36 33 14
94 29 135 34 41 5 124 16 184 25 61 10 131 14 160 11 28 -3 81 -9 118 -12 l68
-6 31 -57 c47 -83 66 -101 110 -101 55 0 63 16 55 111 l-7 80 143 -7 c126 -6
148 -10 185 -31 44 -25 52 -24 90 10 20 18 31 19 113 13 72 -6 105 -14 163
-41 68 -31 168 -110 226 -178 46 -55 348 -334 396 -367 28 -19 64 -35 89 -37
37 -5 43 -2 55 20 8 16 11 36 7 53 -5 17 -92 113 -235 258 -284 288 -361 380
-337 403 3 3 47 8 98 11 78 3 125 -2 295 -33 165 -30 206 -35 218 -25 8 7 15
19 15 27 0 16 -33 31 -230 103 -80 29 -148 56 -152 59 -4 3 -1 29 6 56 l12 50
349 7 c399 8 533 19 580 48 18 11 44 20 58 20 13 0 134 -61 268 -135 274 -152
308 -166 348 -144 65 37 26 82 -216 248 -81 56 -167 114 -189 130 -35 25 -42
36 -48 75 -4 25 -5 50 -2 55 4 5 64 50 134 100 170 121 208 154 254 225 82
127 29 127 -184 0 -169 -101 -294 -157 -487 -221 -161 -53 -175 -59 -193 -90
-19 -32 -22 -33 -86 -33 -37 0 -112 -3 -167 -6 -55 -4 -97 -4 -94 0 4 4 70 18
148 31 77 13 145 27 151 30 14 9 12 35 -2 35 -143 -1 -1509 -72 -1547 -81 -89
-19 -180 -7 -341 46 l-145 47 -285 -5 c-314 -6 -375 -13 -667 -78 -204 -45
-296 -49 -347 -15 -37 24 -55 21 -247 -34 -284 -82 -416 -129 -462 -164 -22
-17 -81 -84 -130 -148 l-89 -116 -155 74 c-169 80 -191 85 -279 57 l-52 -16
-94 95 c-51 52 -113 109 -138 125 -73 49 -203 103 -247 103 l-40 0 -7 77 c-9
95 -67 281 -109 348 -41 64 -100 129 -143 156 l-34 20 24 47 c33 64 43 109 56
233 12 122 1 231 -30 293 -11 22 -18 41 -17 41 1 1 46 12 100 24 96 22 283
105 426 190 29 18 55 30 58 28 2 -2 -1 -53 -7 -113 -17 -182 -14 -227 16 -264
32 -38 146 -120 167 -120 8 0 21 7 28 16 12 14 8 20 -26 48 -21 17 -47 38 -57
46 -10 8 -21 29 -24 47 -6 31 -5 32 68 66 83 38 108 65 131 145 15 49 15 59
-4 145 -25 118 -35 142 -72 173 -40 34 -88 52 -177 70 -118 22 -207 17 -355
-21z"/>
<path d="M14705 590 c3 -5 10 -10 16 -10 5 0 9 5 9 10 0 6 -7 10 -16 10 -8 0
-12 -4 -9 -10z"/>
<path d="M7 273 c7 -2 19 -2 26 0 6 3 1 5 -13 5 -14 0 -19 -2 -13 -5z"/>
<path d="M3930 9 c0 -5 5 -7 10 -4 6 3 10 8 10 11 0 2 -4 4 -10 4 -5 0 -10 -5
-10 -11z"/>
</g>
</svg>
