<?xml version="1.0" standalone="no"?>
<!DOCTYPE svg PUBLIC "-//W3C//DTD SVG 20010904//EN"
        "http://www.w3.org/TR/2001/REC-SVG-20010904/DTD/svg10.dtd">
<svg version="1.0" xmlns="http://www.w3.org/2000/svg"
     width="1214.000000pt" height="1536.000000pt" viewBox="0 0 1214.000000 1536.000000"
     preserveAspectRatio="xMidYMid meet">
    <metadata>
        Created by potrace 1.16, written by Peter Selinger 2001-2019
    </metadata>
    <g transform="translate(0.000000,1536.000000) scale(0.100000,-0.100000)"
       fill="#000000" stroke="none">
        <path d="M9910 15351 c-60 -19 -134 -65 -188 -119 -109 -106 -132 -161 -161
-389 -25 -188 -51 -269 -169 -518 -188 -394 -205 -521 -128 -940 43 -237 62
-386 77 -596 18 -268 10 -329 -101 -699 -125 -418 -177 -557 -294 -790 -105
-208 -122 -256 -191 -537 -100 -402 -161 -561 -243 -634 -80 -70 -373 -208
-757 -357 -459 -178 -1214 -506 -1550 -674 -401 -201 -628 -360 -1426 -994
-635 -506 -877 -689 -1234 -934 -503 -346 -981 -696 -1215 -891 -103 -86 -211
-193 -543 -542 -166 -174 -297 -289 -439 -385 -145 -98 -205 -165 -295 -332
-94 -171 -202 -448 -249 -631 -60 -238 -127 -722 -144 -1040 -18 -355 -48
-438 -206 -584 -259 -239 -404 -557 -445 -980 -14 -139 -6 -382 16 -525 30
-196 107 -554 156 -722 36 -124 17 -111 219 -153 333 -70 661 -91 1225 -81
613 12 864 39 1105 117 216 71 397 193 491 331 22 32 91 157 155 280 129 249
186 349 208 367 12 10 14 6 9 -31 -5 -41 -69 -430 -133 -803 -17 -99 -33 -220
-37 -270 l-6 -90 42 -42 c76 -75 150 -91 609 -130 285 -24 372 -28 677 -27
536 3 949 21 1805 80 984 67 1123 87 1150 160 18 47 11 126 -15 183 -79 168
-418 396 -762 511 -228 76 -546 124 -823 124 -154 0 -176 -2 -325 -36 -286
-65 -507 -91 -775 -92 -301 -1 -323 19 -321 289 0 217 37 430 122 722 77 264
171 504 408 1045 180 411 317 783 342 928 20 116 17 588 -5 709 -19 107 -84
345 -128 471 -83 235 -200 386 -442 567 -311 234 -651 335 -1126 336 -341 0
-623 -53 -979 -185 -87 -33 -137 -46 -143 -40 -7 7 -2 16 15 27 92 60 589 206
800 234 115 16 441 13 597 -4 421 -49 689 -170 1029 -465 184 -160 269 -328
376 -745 58 -226 68 -332 63 -655 -4 -254 -6 -269 -31 -354 -63 -203 -208
-573 -396 -1004 -184 -422 -288 -693 -365 -952 -73 -244 -83 -360 -31 -360 31
0 163 47 311 111 271 116 887 357 1473 575 650 243 745 286 953 434 75 54 158
106 184 116 41 16 49 16 73 3 14 -8 35 -29 48 -47 42 -64 195 -574 243 -812
61 -307 63 -474 8 -841 -27 -183 -32 -243 -32 -414 -1 -184 1 -204 21 -255 28
-69 74 -125 121 -149 84 -43 133 -46 652 -46 l496 0 48 25 c68 35 104 83 118
156 20 109 -8 141 -175 200 -93 34 -177 77 -200 101 -10 11 -26 44 -36 74 -40
112 -55 286 -81 894 -12 278 -22 395 -50 565 -53 320 -80 684 -81 1080 0 392
13 505 72 622 68 134 383 522 575 708 152 147 260 225 463 337 428 234 598
405 812 818 136 261 202 434 274 725 81 323 97 413 105 590 9 201 43 377 135
695 34 121 75 270 89 330 61 262 92 591 79 848 -4 87 -6 161 -4 163 2 2 33 4
68 4 35 0 78 6 97 14 39 16 84 69 125 146 43 80 102 143 207 221 l91 67 11 58
c18 94 40 268 53 421 10 114 10 154 0 199 -12 53 -66 165 -230 476 -131 250
-158 350 -171 643 -5 110 -16 223 -23 250 -42 152 -121 228 -427 411 -134 80
-191 129 -220 190 -67 137 22 413 280 864 206 363 470 912 546 1136 28 83 48
214 63 404 6 74 22 194 37 265 29 149 27 205 -11 270 -34 58 -114 116 -169
122 -40 5 -45 3 -69 -28 -14 -19 -56 -88 -93 -154 -114 -205 -217 -335 -544
-685 -286 -307 -395 -449 -493 -645 -48 -97 -81 -144 -92 -133 -4 4 -11 107
-16 230 -9 236 -20 360 -45 498 -55 307 -236 796 -349 945 -44 57 -120 79
-195 56z"/>
    </g>
</svg>
