<?xml version="1.0" standalone="no"?>
<!DOCTYPE svg PUBLIC "-//W3C//DTD SVG 20010904//EN"
 "http://www.w3.org/TR/2001/REC-SVG-20010904/DTD/svg10.dtd">
<svg version="1.0" xmlns="http://www.w3.org/2000/svg"
 width="1536.000000pt" height="1310.000000pt" viewBox="0 0 1536.000000 1310.000000"
 preserveAspectRatio="xMidYMid meet">
<metadata>
Created by potrace 1.16, written by Peter Selinger 2001-2019
</metadata>
<g transform="translate(0.000000,1310.000000) scale(0.100000,-0.100000)"
fill="#000000" stroke="none">
<path d="M2690 13087 c-146 -43 -286 -161 -354 -301 -46 -96 -80 -224 -97
-376 -21 -177 -18 -877 4 -1090 50 -483 139 -903 276 -1307 32 -95 57 -173 55
-173 -2 0 -26 9 -54 20 -122 48 -177 46 -200 -9 -12 -30 -18 -34 -156 -98 -48
-22 -117 -85 -244 -222 -160 -173 -327 -303 -585 -457 -109 -65 -194 -138
-259 -223 -73 -95 -459 -678 -551 -831 -168 -280 -231 -431 -280 -663 -29
-137 -48 -181 -135 -316 -72 -112 -99 -194 -107 -316 -8 -131 4 -165 78 -222
33 -26 62 -57 65 -70 4 -16 -5 -48 -26 -94 -62 -135 -37 -162 259 -280 444
-175 652 -231 871 -233 l135 -1 140 49 c121 42 147 48 195 43 103 -9 212 -84
251 -171 28 -63 37 -117 54 -311 19 -226 31 -311 56 -387 18 -52 152 -314 336
-653 30 -55 79 -162 109 -239 121 -304 156 -346 458 -532 150 -92 319 -234
615 -515 112 -107 260 -247 329 -311 107 -100 129 -126 149 -175 124 -304 186
-676 163 -969 -28 -343 -128 -587 -324 -792 -99 -103 -183 -160 -378 -255
-174 -85 -250 -144 -292 -229 -59 -118 -16 -186 134 -217 86 -17 585 -69 793
-82 143 -9 223 -9 336 -1 232 18 318 55 416 179 91 116 152 269 275 688 50
172 104 300 276 655 73 151 155 333 183 403 97 243 150 327 253 400 100 71
338 183 478 225 97 29 197 22 333 -22 176 -58 604 -212 732 -262 255 -102 298
-129 465 -289 156 -151 211 -189 362 -250 157 -63 293 -94 683 -155 526 -82
668 -136 970 -369 43 -34 124 -87 180 -118 200 -111 285 -177 285 -222 0 -18
-7 -17 -137 10 -331 69 -481 114 -774 228 -234 91 -363 122 -534 128 -159 6
-219 -4 -359 -61 -178 -71 -367 -213 -431 -321 -29 -51 -64 -196 -65 -268 0
-130 65 -166 365 -202 167 -19 360 -19 605 1 272 22 397 15 811 -45 660 -97
717 -109 1099 -241 476 -165 714 -201 950 -145 220 53 392 214 451 425 23 81
16 259 -15 414 -46 228 -27 310 91 393 110 77 225 125 342 144 87 14 365 13
444 -2 87 -16 195 -14 238 5 20 8 76 45 125 81 49 37 114 80 144 95 43 21 236
97 348 135 9 3 -8 35 -52 98 l-65 93 157 11 c94 7 176 18 204 28 99 35 176
130 282 345 75 154 210 357 261 393 22 16 69 48 104 71 98 62 105 77 109 207
4 107 4 109 33 134 17 13 69 37 117 51 48 14 91 30 96 35 13 12 -136 80 -281
129 -505 169 -998 71 -1354 -267 -49 -47 -93 -83 -97 -79 -4 4 -7 188 -7 409
l-1 402 -27 101 c-160 611 -472 1198 -928 1744 -189 227 -574 596 -874 836
-239 192 -510 382 -770 539 -319 194 -827 425 -1185 540 -458 147 -1029 258
-1635 317 -179 18 -947 18 -1115 0 -335 -35 -656 -95 -909 -169 -389 -114
-352 -107 -586 -107 -241 -1 -341 16 -473 79 -160 76 -239 191 -333 488 -114
359 -330 868 -416 979 -15 20 -69 71 -120 112 -115 96 -133 132 -114 233 6 35
50 185 97 331 168 525 204 718 204 1118 0 200 -12 341 -45 514 -13 69 -36 193
-50 275 -68 397 -130 569 -247 686 -210 210 -447 222 -694 36 l-71 -54 -33
110 c-93 306 -220 511 -360 582 -65 33 -161 42 -230 22z"/>
</g>
</svg>
